Coordinates
version=1
nRows=14
nColumns=24
inDegrees=yes

Units are S.I. units (second, meters, Newtons, ...)
If the header above contains a line with 'inDegrees', this indicates whether rotational values are in degrees (yes) or radians (no).

endheader
time	pelvis_tilt	pelvis_list	pelvis_rotation	pelvis_tx	pelvis_ty	pelvis_tz	hip_flexion_r	hip_adduction_r	hip_rotation_r	knee_angle_r	ankle_angle_r	subtalar_angle_r	mtp_angle_r	hip_flexion_l	hip_adduction_l	hip_rotation_l	knee_angle_l	ankle_angle_l	subtalar_angle_l	mtp_angle_l	lumbar_extension	lumbar_bending	lumbar_rotation
      1.88300000	      9.11178595	      4.73241301	      2.24548155	      0.59423048	      0.96331268	     -0.00582938	     17.32501552	     -7.49042785	     -4.33682626	     -9.30138025	     -3.01794660	      4.32284597	      0.00000000	    -29.14934706	      3.80185955	     -8.88880697	     -6.72848799	      8.03737613	     25.69496188	      0.00000000	    -21.96028811	     -2.38073878	    -11.92618857
      1.90000000	      8.81586668	      4.46009178	      2.63480910	      0.59743858	      0.96219311	     -0.00354946	     18.19003098	     -6.96934838	     -4.09294714	    -12.48283660	     -4.29763004	      2.97411463	      0.00000000	    -28.85180119	      2.81480150	     -8.78581590	     -8.98458756	      7.12343509	     26.13655767	      0.00000000	    -21.33190855	     -1.87080638	    -11.87855094
      1.91700000	      8.42176934	      4.32957440	      2.95702716	      0.60032575	      0.96151479	     -0.00124836	     19.43048152	     -6.68141897	     -3.96624958	    -16.25174978	     -5.12248216	      1.90375198	      0.00000000	    -27.96313611	      1.99518470	     -8.41235659	    -11.97270684	      5.90482441	     26.21594718	      0.00000000	    -20.66338095	     -1.43870251	    -11.97258023
      1.93300000	      8.13961545	      3.88921916	      3.31156123	      0.60427498	      0.96174031	      0.00124882	     20.09697610	     -6.03341596	     -3.44385785	    -19.45921817	     -5.63371185	      0.48953111	      0.00000000	    -26.71326858	      0.78883792	     -8.18408840	    -15.74653858	      4.21491387	     26.29927784	      0.00000000	    -19.96384905	     -0.76001628	    -11.76493210
      1.95000000	      8.25160877	      3.29803640	      3.92526020	      0.60831996	      0.96303637	      0.00370330	     19.90079117	     -5.29634136	     -3.28341831	    -22.00789298	     -5.74686196	     -0.21568464	      0.00000000	    -25.24080527	     -0.76631380	     -7.52447590	    -20.45111227	      2.14625167	     26.20818502	      0.00000000	    -19.75117073	      0.17241909	    -11.89239138
      1.96700000	      7.87504952	      3.04032184	      4.48539317	      0.61094533	      0.96354177	      0.00598702	     20.11996074	     -5.05354237	     -3.50702277	    -24.29065138	     -5.43835901	     -0.02718543	      0.00000000	    -22.22693551	     -1.89842642	     -6.56985821	    -26.61048022	     -0.36309184	     25.56979189	      0.00000000	    -19.09638015	      0.69517227	    -11.95840279
      1.98300000	      7.36442875	      2.40259046	      4.85722725	      0.61311171	      0.96380537	      0.00893228	     20.19767140	     -4.33006836	     -3.85078786	    -25.92787927	     -4.82177910	     -0.01664826	      0.00000000	    -18.39133806	     -3.35002746	     -6.07033320	    -33.57817572	     -3.53394162	     24.48066819	      0.00000000	    -18.36014433	      1.45631153	    -11.87743058
      2.00000000	      6.75537229	      1.83773628	      4.87314476	      0.61451537	      0.96400536	      0.01165228	     20.35714231	     -3.62879701	     -4.25948947	    -27.46085233	     -3.65692333	      0.12716572	      0.00000000	    -14.11715617	     -4.31428808	     -5.47872930	    -40.54078773	     -7.49916743	     21.90727710	      0.00000000	    -17.50784989	      2.09588682	    -11.41217210
      2.01700000	      6.32846251	      0.62813524	      4.65365775	      0.61514788	      0.96466328	      0.01497473	     19.84170943	     -2.07756396	     -4.57864613	    -27.89753080	     -2.62293978	      0.00651321	      0.00000000	     -9.77000267	     -5.94185161	     -5.31881943	    -47.33790830	    -11.54428618	     19.09242353	      0.00000000	    -16.95274171	      3.35753349	    -10.29973927
      2.03300000	      5.83843732	     -0.58743926	      4.65588817	      0.61559733	      0.96577093	      0.01795247	     19.06694164	     -0.56313172	     -5.04300674	    -27.77565208	     -1.51240758	      0.12988327	      0.00000000	     -5.33410577	     -7.57685584	     -4.97034638	    -53.47090245	    -14.93086651	     16.02995470	      0.00000000	    -16.24751818	      4.59909071	     -9.58069709
      2.05000000	      5.52812119	     -1.66469555	      4.35140883	      0.61530120	      0.96750558	      0.02143528	     17.90755844	      0.97107750	     -5.19760238	    -27.18061288	     -0.61988626	     -0.03081097	      0.00000000	     -1.27185200	     -8.95752351	     -4.73401932	    -58.83700957	    -16.62904752	     13.33045591	      0.00000000	    -15.88399686	      5.58392752	     -8.47773294
      2.06700000	      5.77627505	     -2.59308258	      4.00831012	      0.61550644	      0.97037092	      0.02448654	     16.00052177	      2.42131693	     -5.01892841	    -26.39775678	      0.26738733	     -0.19293784	      0.00000000	      2.07132264	    -10.20042952	     -4.49750860	    -63.60113063	    -16.51377858	     11.39703418	      0.00000000	    -16.07675861	      6.40593506	     -7.49914141
      2.08300000	      5.99116733	     -3.39793215	      3.52020642	      0.61574953	      0.97395171	      0.02765934	     13.73429666	      3.71083034	     -4.66682036	    -24.89749147	      0.89803039	     -0.08907304	      0.00000000	      5.02822553	    -11.30741454	     -4.53248641	    -67.29441794	    -14.64517861	     10.15900075	      0.00000000	    -16.26753906	      7.04901705	     -6.13604820
      2.10000000	      6.30180098	     -3.94601756	      2.95631378	      0.61585624	      0.97790708	      0.03040074	     11.28205940	      4.63049410	     -4.35783458	    -23.29384379	      1.41998289	      0.47891114	      0.00000000	      7.63563945	    -11.89473607	     -4.49728714	    -70.03397624	    -12.14803506	      9.07160664	      0.00000000	    -16.62513963	      7.38388935	     -4.96349408
